<mxfile host="app.diagrams.net" modified="2022-06-16T23:09:32.000Z" agent="5.0 (Windows)" etag="4KVB9p-__v5z5HWnMIQd" version="19.0.0" type="github">
  <diagram id="Udj0PCoaiVagkwcKDecr" name="Page-1">
    <mxGraphModel dx="2480" dy="1366" grid="1" gridSize="10" guides="1" tooltips="1" connect="1" arrows="1" fold="1" page="1" pageScale="1" pageWidth="827" pageHeight="1169" math="0" shadow="0">
      <root>
        <mxCell id="0" />
        <mxCell id="1" parent="0" />
        <mxCell id="m9QGUvLmji4RosX2UXDu-71" style="edgeStyle=orthogonalEdgeStyle;rounded=0;orthogonalLoop=1;jettySize=auto;html=1;entryX=0.5;entryY=0;entryDx=0;entryDy=0;" edge="1" parent="1" source="m9QGUvLmji4RosX2UXDu-1" target="m9QGUvLmji4RosX2UXDu-46">
          <mxGeometry relative="1" as="geometry" />
        </mxCell>
        <mxCell id="m9QGUvLmji4RosX2UXDu-1" value="Start" style="ellipse;whiteSpace=wrap;html=1;" vertex="1" parent="1">
          <mxGeometry x="324" y="70" width="90" height="50" as="geometry" />
        </mxCell>
        <mxCell id="m9QGUvLmji4RosX2UXDu-2" value="End" style="ellipse;whiteSpace=wrap;html=1;" vertex="1" parent="1">
          <mxGeometry x="323" y="1870" width="90" height="50" as="geometry" />
        </mxCell>
        <mxCell id="m9QGUvLmji4RosX2UXDu-36" style="edgeStyle=orthogonalEdgeStyle;rounded=0;orthogonalLoop=1;jettySize=auto;html=1;entryX=0.5;entryY=0;entryDx=0;entryDy=0;" edge="1" parent="1" source="m9QGUvLmji4RosX2UXDu-4" target="m9QGUvLmji4RosX2UXDu-31">
          <mxGeometry relative="1" as="geometry">
            <Array as="points">
              <mxPoint x="560" y="1040" />
              <mxPoint x="369" y="1040" />
            </Array>
          </mxGeometry>
        </mxCell>
        <mxCell id="m9QGUvLmji4RosX2UXDu-4" value="discountApplicable = (25 / 100) * sub total" style="rounded=0;whiteSpace=wrap;html=1;" vertex="1" parent="1">
          <mxGeometry x="500" y="900" width="120" height="60" as="geometry" />
        </mxCell>
        <mxCell id="m9QGUvLmji4RosX2UXDu-10" style="edgeStyle=orthogonalEdgeStyle;rounded=0;orthogonalLoop=1;jettySize=auto;html=1;entryX=0.5;entryY=0;entryDx=0;entryDy=0;" edge="1" parent="1" source="m9QGUvLmji4RosX2UXDu-7" target="m9QGUvLmji4RosX2UXDu-8">
          <mxGeometry relative="1" as="geometry">
            <Array as="points">
              <mxPoint x="564" y="390" />
              <mxPoint x="564" y="550" />
              <mxPoint x="369" y="550" />
            </Array>
          </mxGeometry>
        </mxCell>
        <mxCell id="m9QGUvLmji4RosX2UXDu-12" style="edgeStyle=orthogonalEdgeStyle;rounded=0;orthogonalLoop=1;jettySize=auto;html=1;entryX=0.5;entryY=0;entryDx=0;entryDy=0;" edge="1" parent="1" source="m9QGUvLmji4RosX2UXDu-7" target="m9QGUvLmji4RosX2UXDu-9">
          <mxGeometry relative="1" as="geometry" />
        </mxCell>
        <mxCell id="m9QGUvLmji4RosX2UXDu-7" value="Are there total 2 people?" style="rhombus;whiteSpace=wrap;html=1;" vertex="1" parent="1">
          <mxGeometry x="264" y="350" width="210" height="80" as="geometry" />
        </mxCell>
        <mxCell id="m9QGUvLmji4RosX2UXDu-17" style="edgeStyle=orthogonalEdgeStyle;rounded=0;orthogonalLoop=1;jettySize=auto;html=1;entryX=0.5;entryY=0;entryDx=0;entryDy=0;" edge="1" parent="1" source="m9QGUvLmji4RosX2UXDu-8" target="m9QGUvLmji4RosX2UXDu-15">
          <mxGeometry relative="1" as="geometry">
            <Array as="points">
              <mxPoint x="564" y="610" />
              <mxPoint x="564" y="760" />
              <mxPoint x="369" y="760" />
            </Array>
          </mxGeometry>
        </mxCell>
        <mxCell id="m9QGUvLmji4RosX2UXDu-18" style="edgeStyle=orthogonalEdgeStyle;rounded=0;orthogonalLoop=1;jettySize=auto;html=1;entryX=0.5;entryY=0;entryDx=0;entryDy=0;" edge="1" parent="1" source="m9QGUvLmji4RosX2UXDu-8" target="m9QGUvLmji4RosX2UXDu-11">
          <mxGeometry relative="1" as="geometry" />
        </mxCell>
        <mxCell id="m9QGUvLmji4RosX2UXDu-8" value="Are there total 3 people?" style="rhombus;whiteSpace=wrap;html=1;" vertex="1" parent="1">
          <mxGeometry x="264" y="570" width="210" height="80" as="geometry" />
        </mxCell>
        <mxCell id="m9QGUvLmji4RosX2UXDu-70" style="edgeStyle=orthogonalEdgeStyle;rounded=0;orthogonalLoop=1;jettySize=auto;html=1;entryX=0.5;entryY=0;entryDx=0;entryDy=0;exitX=0.5;exitY=1;exitDx=0;exitDy=0;" edge="1" parent="1" source="m9QGUvLmji4RosX2UXDu-9" target="m9QGUvLmji4RosX2UXDu-31">
          <mxGeometry relative="1" as="geometry">
            <Array as="points">
              <mxPoint x="369" y="540" />
              <mxPoint x="120" y="540" />
              <mxPoint x="120" y="1070" />
              <mxPoint x="369" y="1070" />
            </Array>
          </mxGeometry>
        </mxCell>
        <mxCell id="m9QGUvLmji4RosX2UXDu-9" value="discountApplicable = (5 / 100) * sub total" style="rounded=0;whiteSpace=wrap;html=1;" vertex="1" parent="1">
          <mxGeometry x="309" y="460" width="120" height="60" as="geometry" />
        </mxCell>
        <mxCell id="m9QGUvLmji4RosX2UXDu-38" style="edgeStyle=orthogonalEdgeStyle;rounded=0;orthogonalLoop=1;jettySize=auto;html=1;entryX=0.5;entryY=0;entryDx=0;entryDy=0;exitX=0.5;exitY=1;exitDx=0;exitDy=0;" edge="1" parent="1" source="m9QGUvLmji4RosX2UXDu-11" target="m9QGUvLmji4RosX2UXDu-31">
          <mxGeometry relative="1" as="geometry">
            <Array as="points">
              <mxPoint x="369" y="750" />
              <mxPoint x="160" y="750" />
              <mxPoint x="160" y="1050" />
              <mxPoint x="369" y="1050" />
            </Array>
          </mxGeometry>
        </mxCell>
        <mxCell id="m9QGUvLmji4RosX2UXDu-11" value="discountApplicable = (10 / 100) * sub total" style="rounded=0;whiteSpace=wrap;html=1;" vertex="1" parent="1">
          <mxGeometry x="309" y="680" width="120" height="60" as="geometry" />
        </mxCell>
        <mxCell id="m9QGUvLmji4RosX2UXDu-13" value="Yes" style="text;html=1;align=center;verticalAlign=middle;resizable=0;points=[];autosize=1;strokeColor=none;fillColor=none;" vertex="1" parent="1">
          <mxGeometry x="374" y="430" width="40" height="20" as="geometry" />
        </mxCell>
        <mxCell id="m9QGUvLmji4RosX2UXDu-14" value="No" style="text;html=1;align=center;verticalAlign=middle;resizable=0;points=[];autosize=1;strokeColor=none;fillColor=none;" vertex="1" parent="1">
          <mxGeometry x="479" y="370" width="30" height="20" as="geometry" />
        </mxCell>
        <mxCell id="m9QGUvLmji4RosX2UXDu-20" style="edgeStyle=orthogonalEdgeStyle;rounded=0;orthogonalLoop=1;jettySize=auto;html=1;entryX=0.5;entryY=0;entryDx=0;entryDy=0;" edge="1" parent="1" source="m9QGUvLmji4RosX2UXDu-15" target="m9QGUvLmji4RosX2UXDu-16">
          <mxGeometry relative="1" as="geometry" />
        </mxCell>
        <mxCell id="m9QGUvLmji4RosX2UXDu-34" style="edgeStyle=orthogonalEdgeStyle;rounded=0;orthogonalLoop=1;jettySize=auto;html=1;entryX=0.5;entryY=0;entryDx=0;entryDy=0;" edge="1" parent="1" source="m9QGUvLmji4RosX2UXDu-15" target="m9QGUvLmji4RosX2UXDu-4">
          <mxGeometry relative="1" as="geometry" />
        </mxCell>
        <mxCell id="m9QGUvLmji4RosX2UXDu-15" value="Are there total 4 people?" style="rhombus;whiteSpace=wrap;html=1;" vertex="1" parent="1">
          <mxGeometry x="264" y="780" width="210" height="80" as="geometry" />
        </mxCell>
        <mxCell id="m9QGUvLmji4RosX2UXDu-37" style="edgeStyle=orthogonalEdgeStyle;rounded=0;orthogonalLoop=1;jettySize=auto;html=1;entryX=0.5;entryY=0;entryDx=0;entryDy=0;" edge="1" parent="1" source="m9QGUvLmji4RosX2UXDu-16" target="m9QGUvLmji4RosX2UXDu-31">
          <mxGeometry relative="1" as="geometry" />
        </mxCell>
        <mxCell id="m9QGUvLmji4RosX2UXDu-16" value="discountApplicable = (15 / 100) * sub total" style="rounded=0;whiteSpace=wrap;html=1;" vertex="1" parent="1">
          <mxGeometry x="309" y="900" width="120" height="60" as="geometry" />
        </mxCell>
        <mxCell id="m9QGUvLmji4RosX2UXDu-21" value="Yes" style="text;html=1;align=center;verticalAlign=middle;resizable=0;points=[];autosize=1;strokeColor=none;fillColor=none;" vertex="1" parent="1">
          <mxGeometry x="374" y="860" width="40" height="20" as="geometry" />
        </mxCell>
        <mxCell id="m9QGUvLmji4RosX2UXDu-22" value="Yes" style="text;html=1;align=center;verticalAlign=middle;resizable=0;points=[];autosize=1;strokeColor=none;fillColor=none;" vertex="1" parent="1">
          <mxGeometry x="364" y="650" width="40" height="20" as="geometry" />
        </mxCell>
        <mxCell id="m9QGUvLmji4RosX2UXDu-23" value="No" style="text;html=1;align=center;verticalAlign=middle;resizable=0;points=[];autosize=1;strokeColor=none;fillColor=none;" vertex="1" parent="1">
          <mxGeometry x="479" y="590" width="30" height="20" as="geometry" />
        </mxCell>
        <mxCell id="m9QGUvLmji4RosX2UXDu-24" value="No" style="text;html=1;align=center;verticalAlign=middle;resizable=0;points=[];autosize=1;strokeColor=none;fillColor=none;" vertex="1" parent="1">
          <mxGeometry x="489" y="795" width="30" height="20" as="geometry" />
        </mxCell>
        <mxCell id="m9QGUvLmji4RosX2UXDu-28" style="edgeStyle=orthogonalEdgeStyle;rounded=0;orthogonalLoop=1;jettySize=auto;html=1;entryX=0.5;entryY=0;entryDx=0;entryDy=0;" edge="1" parent="1" source="m9QGUvLmji4RosX2UXDu-27" target="m9QGUvLmji4RosX2UXDu-7">
          <mxGeometry relative="1" as="geometry" />
        </mxCell>
        <mxCell id="m9QGUvLmji4RosX2UXDu-35" style="edgeStyle=orthogonalEdgeStyle;rounded=0;orthogonalLoop=1;jettySize=auto;html=1;entryX=0.5;entryY=0;entryDx=0;entryDy=0;" edge="1" parent="1" source="m9QGUvLmji4RosX2UXDu-27" target="m9QGUvLmji4RosX2UXDu-31">
          <mxGeometry relative="1" as="geometry">
            <Array as="points">
              <mxPoint x="720" y="280" />
              <mxPoint x="720" y="1060" />
              <mxPoint x="369" y="1060" />
            </Array>
          </mxGeometry>
        </mxCell>
        <mxCell id="m9QGUvLmji4RosX2UXDu-27" value="Are there more than 1 person?" style="rhombus;whiteSpace=wrap;html=1;" vertex="1" parent="1">
          <mxGeometry x="264" y="240" width="210" height="80" as="geometry" />
        </mxCell>
        <mxCell id="m9QGUvLmji4RosX2UXDu-29" value="Yes" style="text;html=1;align=center;verticalAlign=middle;resizable=0;points=[];autosize=1;strokeColor=none;fillColor=none;" vertex="1" parent="1">
          <mxGeometry x="370" y="320" width="40" height="20" as="geometry" />
        </mxCell>
        <mxCell id="m9QGUvLmji4RosX2UXDu-43" style="edgeStyle=orthogonalEdgeStyle;rounded=0;orthogonalLoop=1;jettySize=auto;html=1;entryX=0.5;entryY=0;entryDx=0;entryDy=0;" edge="1" parent="1" source="m9QGUvLmji4RosX2UXDu-31" target="m9QGUvLmji4RosX2UXDu-42">
          <mxGeometry relative="1" as="geometry" />
        </mxCell>
        <mxCell id="m9QGUvLmji4RosX2UXDu-67" style="edgeStyle=orthogonalEdgeStyle;rounded=0;orthogonalLoop=1;jettySize=auto;html=1;entryX=0.5;entryY=0;entryDx=0;entryDy=0;" edge="1" parent="1" source="m9QGUvLmji4RosX2UXDu-31" target="m9QGUvLmji4RosX2UXDu-2">
          <mxGeometry relative="1" as="geometry">
            <Array as="points">
              <mxPoint x="640" y="1140" />
              <mxPoint x="640" y="1840" />
              <mxPoint x="368" y="1840" />
            </Array>
          </mxGeometry>
        </mxCell>
        <mxCell id="m9QGUvLmji4RosX2UXDu-31" value="&lt;div&gt;Did they purchase&lt;/div&gt;&lt;div&gt;any snacks?&lt;/div&gt;" style="rhombus;whiteSpace=wrap;html=1;" vertex="1" parent="1">
          <mxGeometry x="264" y="1100" width="210" height="80" as="geometry" />
        </mxCell>
        <mxCell id="m9QGUvLmji4RosX2UXDu-33" value="No" style="text;html=1;align=center;verticalAlign=middle;resizable=0;points=[];autosize=1;strokeColor=none;fillColor=none;" vertex="1" parent="1">
          <mxGeometry x="485" y="1110" width="30" height="20" as="geometry" />
        </mxCell>
        <mxCell id="m9QGUvLmji4RosX2UXDu-52" style="edgeStyle=orthogonalEdgeStyle;rounded=0;orthogonalLoop=1;jettySize=auto;html=1;entryX=0.5;entryY=0;entryDx=0;entryDy=0;" edge="1" parent="1" source="m9QGUvLmji4RosX2UXDu-42" target="m9QGUvLmji4RosX2UXDu-45">
          <mxGeometry relative="1" as="geometry" />
        </mxCell>
        <mxCell id="m9QGUvLmji4RosX2UXDu-62" style="edgeStyle=orthogonalEdgeStyle;rounded=0;orthogonalLoop=1;jettySize=auto;html=1;entryX=0.5;entryY=0;entryDx=0;entryDy=0;" edge="1" parent="1" source="m9QGUvLmji4RosX2UXDu-42" target="m9QGUvLmji4RosX2UXDu-47">
          <mxGeometry relative="1" as="geometry">
            <Array as="points">
              <mxPoint x="520" y="1255" />
              <mxPoint x="520" y="1400" />
              <mxPoint x="369" y="1400" />
            </Array>
          </mxGeometry>
        </mxCell>
        <mxCell id="m9QGUvLmji4RosX2UXDu-42" value="&lt;div&gt;Did they purchase&lt;/div&gt;&lt;div&gt;any non-alcoholic beverage?&lt;br&gt;&lt;/div&gt;" style="rhombus;whiteSpace=wrap;html=1;" vertex="1" parent="1">
          <mxGeometry x="264" y="1210" width="210" height="90" as="geometry" />
        </mxCell>
        <mxCell id="m9QGUvLmji4RosX2UXDu-44" value="Yes" style="text;html=1;align=center;verticalAlign=middle;resizable=0;points=[];autosize=1;strokeColor=none;fillColor=none;" vertex="1" parent="1">
          <mxGeometry x="370" y="1190" width="40" height="20" as="geometry" />
        </mxCell>
        <mxCell id="m9QGUvLmji4RosX2UXDu-56" style="edgeStyle=orthogonalEdgeStyle;rounded=0;orthogonalLoop=1;jettySize=auto;html=1;entryX=0.5;entryY=0;entryDx=0;entryDy=0;" edge="1" parent="1" source="m9QGUvLmji4RosX2UXDu-45" target="m9QGUvLmji4RosX2UXDu-47">
          <mxGeometry relative="1" as="geometry" />
        </mxCell>
        <mxCell id="m9QGUvLmji4RosX2UXDu-45" value="totalSnackCharge += (number of non-alcoholic beverages * 2.50)" style="rounded=0;whiteSpace=wrap;html=1;" vertex="1" parent="1">
          <mxGeometry x="288.5" y="1330" width="161" height="60" as="geometry" />
        </mxCell>
        <mxCell id="m9QGUvLmji4RosX2UXDu-72" style="edgeStyle=orthogonalEdgeStyle;rounded=0;orthogonalLoop=1;jettySize=auto;html=1;entryX=0.5;entryY=0;entryDx=0;entryDy=0;" edge="1" parent="1" source="m9QGUvLmji4RosX2UXDu-46" target="m9QGUvLmji4RosX2UXDu-27">
          <mxGeometry relative="1" as="geometry" />
        </mxCell>
        <mxCell id="m9QGUvLmji4RosX2UXDu-46" value="Declare variables discountApplicable, totalSnackCharge = 0" style="rounded=0;whiteSpace=wrap;html=1;" vertex="1" parent="1">
          <mxGeometry x="303.5" y="150" width="131" height="60" as="geometry" />
        </mxCell>
        <mxCell id="m9QGUvLmji4RosX2UXDu-57" style="edgeStyle=orthogonalEdgeStyle;rounded=0;orthogonalLoop=1;jettySize=auto;html=1;entryX=0.5;entryY=0;entryDx=0;entryDy=0;" edge="1" parent="1" source="m9QGUvLmji4RosX2UXDu-47" target="m9QGUvLmji4RosX2UXDu-48">
          <mxGeometry relative="1" as="geometry" />
        </mxCell>
        <mxCell id="m9QGUvLmji4RosX2UXDu-61" style="edgeStyle=orthogonalEdgeStyle;rounded=0;orthogonalLoop=1;jettySize=auto;html=1;entryX=0.5;entryY=0;entryDx=0;entryDy=0;" edge="1" parent="1" source="m9QGUvLmji4RosX2UXDu-47" target="m9QGUvLmji4RosX2UXDu-49">
          <mxGeometry relative="1" as="geometry">
            <Array as="points">
              <mxPoint x="520" y="1465" />
              <mxPoint x="520" y="1610" />
              <mxPoint x="369" y="1610" />
            </Array>
          </mxGeometry>
        </mxCell>
        <mxCell id="m9QGUvLmji4RosX2UXDu-47" value="&lt;div&gt;Did they purchase&lt;/div&gt;&lt;div&gt;any alcoholic beverage?&lt;br&gt;&lt;/div&gt;" style="rhombus;whiteSpace=wrap;html=1;" vertex="1" parent="1">
          <mxGeometry x="264" y="1420" width="210" height="90" as="geometry" />
        </mxCell>
        <mxCell id="m9QGUvLmji4RosX2UXDu-60" style="edgeStyle=orthogonalEdgeStyle;rounded=0;orthogonalLoop=1;jettySize=auto;html=1;entryX=0.5;entryY=0;entryDx=0;entryDy=0;" edge="1" parent="1" source="m9QGUvLmji4RosX2UXDu-48" target="m9QGUvLmji4RosX2UXDu-49">
          <mxGeometry relative="1" as="geometry" />
        </mxCell>
        <mxCell id="m9QGUvLmji4RosX2UXDu-48" value="totalSnackCharge += (number of alcoholic beverages * 6.75)" style="rounded=0;whiteSpace=wrap;html=1;" vertex="1" parent="1">
          <mxGeometry x="298.5" y="1540" width="141" height="60" as="geometry" />
        </mxCell>
        <mxCell id="m9QGUvLmji4RosX2UXDu-58" style="edgeStyle=orthogonalEdgeStyle;rounded=0;orthogonalLoop=1;jettySize=auto;html=1;entryX=0.5;entryY=0;entryDx=0;entryDy=0;" edge="1" parent="1" source="m9QGUvLmji4RosX2UXDu-49" target="m9QGUvLmji4RosX2UXDu-50">
          <mxGeometry relative="1" as="geometry" />
        </mxCell>
        <mxCell id="m9QGUvLmji4RosX2UXDu-68" style="edgeStyle=orthogonalEdgeStyle;rounded=0;orthogonalLoop=1;jettySize=auto;html=1;entryX=0.5;entryY=0;entryDx=0;entryDy=0;" edge="1" parent="1" source="m9QGUvLmji4RosX2UXDu-49" target="m9QGUvLmji4RosX2UXDu-2">
          <mxGeometry relative="1" as="geometry">
            <Array as="points">
              <mxPoint x="530" y="1675" />
              <mxPoint x="530" y="1840" />
              <mxPoint x="368" y="1840" />
            </Array>
          </mxGeometry>
        </mxCell>
        <mxCell id="m9QGUvLmji4RosX2UXDu-49" value="&lt;div&gt;Did they purchase&lt;/div&gt;&lt;div&gt;any candy item?&lt;br&gt;&lt;/div&gt;" style="rhombus;whiteSpace=wrap;html=1;" vertex="1" parent="1">
          <mxGeometry x="264" y="1630" width="210" height="90" as="geometry" />
        </mxCell>
        <mxCell id="m9QGUvLmji4RosX2UXDu-66" style="edgeStyle=orthogonalEdgeStyle;rounded=0;orthogonalLoop=1;jettySize=auto;html=1;entryX=0.5;entryY=0;entryDx=0;entryDy=0;" edge="1" parent="1" source="m9QGUvLmji4RosX2UXDu-50" target="m9QGUvLmji4RosX2UXDu-2">
          <mxGeometry relative="1" as="geometry" />
        </mxCell>
        <mxCell id="m9QGUvLmji4RosX2UXDu-50" value="totalSnackCharge += (number of candy items * 2.25)" style="rounded=0;whiteSpace=wrap;html=1;" vertex="1" parent="1">
          <mxGeometry x="298.5" y="1750" width="141" height="60" as="geometry" />
        </mxCell>
        <mxCell id="m9QGUvLmji4RosX2UXDu-53" value="Yes" style="text;html=1;align=center;verticalAlign=middle;resizable=0;points=[];autosize=1;strokeColor=none;fillColor=none;" vertex="1" parent="1">
          <mxGeometry x="370" y="1300" width="40" height="20" as="geometry" />
        </mxCell>
        <mxCell id="m9QGUvLmji4RosX2UXDu-54" value="Yes" style="text;html=1;align=center;verticalAlign=middle;resizable=0;points=[];autosize=1;strokeColor=none;fillColor=none;" vertex="1" parent="1">
          <mxGeometry x="373" y="1510" width="40" height="20" as="geometry" />
        </mxCell>
        <mxCell id="m9QGUvLmji4RosX2UXDu-59" value="Yes" style="text;html=1;align=center;verticalAlign=middle;resizable=0;points=[];autosize=1;strokeColor=none;fillColor=none;" vertex="1" parent="1">
          <mxGeometry x="364" y="1720" width="40" height="20" as="geometry" />
        </mxCell>
        <mxCell id="m9QGUvLmji4RosX2UXDu-63" value="No" style="text;html=1;align=center;verticalAlign=middle;resizable=0;points=[];autosize=1;strokeColor=none;fillColor=none;" vertex="1" parent="1">
          <mxGeometry x="479" y="1230" width="30" height="20" as="geometry" />
        </mxCell>
        <mxCell id="m9QGUvLmji4RosX2UXDu-64" value="No" style="text;html=1;align=center;verticalAlign=middle;resizable=0;points=[];autosize=1;strokeColor=none;fillColor=none;" vertex="1" parent="1">
          <mxGeometry x="479" y="1440" width="30" height="20" as="geometry" />
        </mxCell>
        <mxCell id="m9QGUvLmji4RosX2UXDu-65" value="No" style="text;html=1;align=center;verticalAlign=middle;resizable=0;points=[];autosize=1;strokeColor=none;fillColor=none;" vertex="1" parent="1">
          <mxGeometry x="479" y="1650" width="30" height="20" as="geometry" />
        </mxCell>
        <mxCell id="m9QGUvLmji4RosX2UXDu-69" value="No" style="text;html=1;align=center;verticalAlign=middle;resizable=0;points=[];autosize=1;strokeColor=none;fillColor=none;" vertex="1" parent="1">
          <mxGeometry x="474" y="260" width="30" height="20" as="geometry" />
        </mxCell>
        <mxCell id="m9QGUvLmji4RosX2UXDu-73" value="&lt;div align=&quot;left&quot;&gt;Full Name&amp;nbsp; : Jeel Satishkumar Patel&lt;br&gt;Student ID#: 167984210&lt;br&gt;Email&amp;nbsp;&amp;nbsp;&amp;nbsp;&amp;nbsp;&amp;nbsp; : jpatel363@myseneca.ca&lt;br&gt;Section&amp;nbsp;&amp;nbsp;&amp;nbsp; : NEE&lt;/div&gt;" style="text;html=1;align=left;verticalAlign=middle;resizable=0;points=[];autosize=1;strokeColor=none;fillColor=none;" vertex="1" parent="1">
          <mxGeometry x="40" y="40" width="210" height="60" as="geometry" />
        </mxCell>
        <mxCell id="m9QGUvLmji4RosX2UXDu-74" value="Workshop 5 Logic 2 - Individual Submission" style="text;html=1;align=left;verticalAlign=middle;resizable=0;points=[];autosize=1;strokeColor=none;fillColor=none;fontSize=14;" vertex="1" parent="1">
          <mxGeometry x="40" y="20" width="290" height="20" as="geometry" />
        </mxCell>
      </root>
    </mxGraphModel>
  </diagram>
</mxfile>
